
        <svg xmlns="http://www.w3.org/2000/svg" width="34" height="34" viewBox="0 0 24 24" fill="grey" stroke="currentColor" stroke-width="0" stroke-linecap="round" stroke-linejoin="round" class="feather feather ">
            <defs><style>.cls-1{fill:#4d4d4d;}</style></defs><title/><g data-name="13" id="_13"><path class="cls-1" d="M24,15V9H20.48q-.16-.45-.36-.87l2.49-2.49L18.36,1.39,15.87,3.88q-.42-.19-.87-.36V0H9V3.52q-.45.16-.87.36L5.64,1.39,1.39,5.64,3.88,8.13q-.19.42-.36.87H0v6H3.52q.16.45.36.87L1.39,18.36l4.25,4.25,2.49-2.49q.42.19.87.36V24h6V20.48q.45-.16.87-.36l2.49,2.49,4.25-4.25-2.49-2.49q.19-.42.36-.87Zm-4.22,3.36-1.42,1.42-2.14-2.15-.67.39a6.6,6.6,0,0,1-1.8.75L13,19v3H11V19l-.75-.19A6.6,6.6,0,0,1,8.45,18l-.67-.39L5.64,19.78,4.22,18.36l2.15-2.14L6,15.55a6.9,6.9,0,0,1-.74-1.8L5,13H2V11H5l.19-.75A6.9,6.9,0,0,1,6,8.45l.4-.67L4.22,5.64,5.64,4.22,7.78,6.37,8.45,6a6.6,6.6,0,0,1,1.8-.75L11,5V2h2V5l.75.19a6.6,6.6,0,0,1,1.8.75l.67.39,2.14-2.15,1.42,1.42L17.63,7.78l.39.67a6.6,6.6,0,0,1,.75,1.8L19,11h3v2H19l-.19.75a6.6,6.6,0,0,1-.75,1.8l-.39.67Z"/><path class="cls-1" d="M12,7a5,5,0,1,0,5,5A5,5,0,0,0,12,7Zm0,8a3,3,0,1,1,3-3A3,3,0,0,1,12,15Z"/></g>
        </svg>